
<svg width="64px" height="70px" viewBox="0 0 64 70" version="1.1" xmlns="http://www.w3.org/2000/svg" xmlns:xlink="http://www.w3.org/1999/xlink">
    <!-- Generator: Sketch 48.2 (47327) - http://www.bohemiancoding.com/sketch -->
    <desc>Created with Sketch.</desc>
    <defs></defs>
    <g id="Index" stroke="none" stroke-width="1" fill="none" fill-rule="evenodd">
        <g id="Desktop-HD" transform="translate(-736.000000, -218.000000)">
            <g id="Head-links" transform="translate(0.000000, 136.000000)">
                <g id="Apply" transform="translate(736.000000, 80.000000)">
                    <g id="Icons/Hexagon/Pencil" transform="translate(0.000000, 2.000000)">
                        <g id="Icons/Hexagon">
                            <path d="M57.0021357,13.6176061 L56.9976965,13.6142759 C56.8743347,13.5211977 56.634469,13.3435193 56.2897046,13.0933566 C55.7126183,12.67462 55.0537581,12.2075604 54.3247589,11.7043046 C52.2412531,10.2659814 50.0158837,8.82759851 47.7425636,7.4863935 C47.6188071,7.41346424 47.6188071,7.41346424 47.4849898,7.33490948 C45.1816215,5.95100801 42.8026615,4.65519749 40.4847311,3.48505681 C39.6736517,3.07560661 38.9285113,2.71129234 38.2663059,2.39672508 C37.8706595,2.20878129 37.59178,2.07971833 37.4409118,2.01151535 C34.5050886,0.662429625 29.5401182,0.662429625 26.5533622,2.01412481 C26.40822,2.07971833 26.1293405,2.20878129 25.7336941,2.39672508 C25.0714887,2.71129234 24.3263483,3.07560661 23.5152689,3.48505681 C21.1973385,4.65519749 18.8183785,5.95100801 16.5089657,7.33851225 C16.3857123,7.41146948 16.3857123,7.41146948 16.2629565,7.48444761 C14.0078089,8.82656197 11.7847276,10.2659302 9.69198404,11.705287 C8.95967642,12.2089568 8.29627115,12.6764332 7.71394902,13.0955895 C7.36589682,13.346118 7.12315108,13.524162 7.00454084,13.6125828 C4.41000685,15.5816422 1.89858402,20.0522846 1.53650111,23.3617458 C1.52011218,23.5244087 1.49100138,23.8376757 1.45339664,24.284265 C1.39049769,25.0312453 1.32754655,25.8770844 1.26876661,26.8044723 C1.10078842,29.4547118 1,32.2245286 1,34.9746469 C1,37.7247651 1.10078842,40.4945819 1.26876661,43.1448214 C1.32754655,44.0722093 1.39049769,44.9180484 1.45339664,45.6650287 C1.49100138,46.111618 1.52011218,46.424885 1.53560776,46.5790458 C1.90264466,49.9341275 4.38900979,54.3858968 7.00230349,56.3350179 C7.12996269,56.4313385 7.37767537,56.6149671 7.73327842,56.8734007 C8.32831861,57.3058447 9.00700707,57.7881574 9.75715155,58.3078247 C11.9009676,59.7929668 14.1852166,61.2781446 16.4961389,62.6540314 L16.5089657,62.6614878 C18.8152372,64.0251392 21.1969855,65.3177509 23.5176742,66.4971467 C24.3297809,66.9098669 25.075927,67.2787983 25.7391236,67.5987436 C26.1356114,67.7900207 26.4153146,67.9219954 26.5590882,67.9884847 C29.4949114,69.3375704 34.4598818,69.3375704 37.4466378,67.9858752 C37.59178,67.9202817 37.8706595,67.7912187 38.2663059,67.6032749 C38.9285113,67.2887077 39.6736517,66.9243934 40.4847311,66.5149432 C42.8026615,65.3448025 45.1816215,64.048992 47.5527864,62.6278473 L47.4849898,62.6650905 C49.7915343,61.2792807 52.072768,59.7930849 54.2257538,58.3068795 C54.97918,57.7867896 55.6624717,57.3040524 56.2628643,56.8711815 C56.6218266,56.612377 56.872496,56.4283783 57.0021357,56.3316877 C59.6109902,54.3858968 62.0973553,49.9341275 62.4634989,46.5875479 C62.4798878,46.424885 62.5089986,46.111618 62.5466034,45.6650287 C62.6095023,44.9180484 62.6724534,44.0722093 62.7312334,43.1448214 C62.8992116,40.4945819 63,37.7247651 63,34.9746469 C63,32.2245286 62.8992116,29.4547118 62.7312334,26.8044723 C62.6724534,25.8770844 62.6095023,25.0312453 62.5466034,24.284265 C62.5089986,23.8376757 62.4798878,23.5244087 62.4643922,23.370248 C62.0973553,20.0151663 59.6109902,15.5633969 57.0021357,13.6176061 Z M58.2000988,12.0160783 C58.2008372,12.0166353 58.2015721,12.0171897 58.2023035,12.0177415 L58.1978643,12.0144113 C58.1986055,12.0149642 58.1993468,12.0155172 58.200088,12.0160704 Z" id="Icons/Hexahon_icon" stroke="#FFFFFF" stroke-width="2" opacity="0.192595109"></path>
                            <g id="Icons/Pencil" transform="translate(16.000000, 19.000000)" fill="#FFFFFF">
                                <g id="Icons/Hexagon/Pencil_Dark_Gray">
                                    <g id="Pencil-Dark-Gray" transform="translate(15.556349, 15.556349) rotate(-315.000000) translate(-15.556349, -15.556349) translate(8.556349, 0.556349)">
                                        <path d="M9.3643,0 L4.6953,0 C2.1063,0 0.0003,1.971 0.0003,4.393 L0.0003,20.952 C0.0003,22.007 0.3463,23.066 0.9743,23.934 L4.5963,28.813 C5.1943,29.581 6.0433,30 6.9553,30 C6.9923,30 7.0303,29.999 7.0673,29.998 C7.7823,29.983 8.4723,29.713 9.0153,29.23 C9.1043,29.151 9.3033,28.975 9.4803,28.687 L13.0083,23.934 C13.6813,23.021 14.0213,21.976 13.9963,20.905 L13.9963,4.429 C14.0533,3.208 13.5523,2.064 12.5813,1.202 C11.7083,0.427 10.5653,0 9.3643,0 M9.3643,2 C10.0863,2 10.7433,2.245 11.2533,2.697 C11.7623,3.149 12.0423,3.359 12.0003,4 L12.0003,21 C12.0213,21.659 11.8043,22.195 11.4013,22.742 L7.7943,27.603 C7.7723,27.659 7.7303,27.697 7.6873,27.734 C7.4963,27.904 7.2633,27.998 7.0083,27.998 C6.9903,27.999 6.9723,28 6.9553,28 C6.6573,28 6.3823,27.853 6.2023,27.622 L2.5943,22.761 C2.2123,22.233 2.0003,21.593 2.0003,20.952 L2.0003,4.393 C2.0003,3.074 3.2093,2 4.6953,2 L9.3643,2" id="Fill-1"></path>
                                        <path d="M12.5107,6 L12.5107,3.972 C12.5577,3.26 12.2517,2.611 11.6857,2.109 C11.1197,1.606 10.3887,1.334 9.5877,1.334 L4.4007,1.334 C2.7497,1.334 1.4067,2.527 1.4067,3.993 L1.4067,6 L12.5107,6 Z" id="Fill-4"></path>
                                        <path d="M1,20 C1,20.562 1.454,21 2.038,21 L11.962,21 C12.546,21 13,20.562 13,20 C13,19.438 12.546,19 11.962,19 L2.038,19 C1.454,19 1,19.438 1,20" id="Fill-6"></path>
                                        <path d="M5,5 C4.438,5 4,5.567 4,6.297 L4,18.703 C4,19.433 4.438,20 5,20 C5.562,20 6,19.433 6,18.703 L6,6.297 C6,5.567 5.562,5 5,5" id="Fill-8"></path>
                                        <path d="M9,5 C8.438,5 8,5.567 8,6.297 L8,18.703 C8,19.433 8.438,20 9,20 C9.562,20 10,19.433 10,18.703 L10,6.297 C10,5.567 9.562,5 9,5" id="Fill-10"></path>
                                    </g>
                                </g>
                            </g>
                        </g>
                    </g>
                </g>
            </g>
        </g>
    </g>
</svg>
