<svg width="24px" height="18px" viewBox="0 0 24 18" version="1.1" xmlns="http://www.w3.org/2000/svg"
     xmlns:xlink="http://www.w3.org/1999/xlink">
    <path d="M6.255,16.0421 C4.416,16.0421 2.919,14.5461 2.919,12.7081 C2.919,10.8701 4.416,9.3741 6.255,9.3741 C8.094,9.3741 9.589,10.8701 9.589,12.7081 C9.589,14.5461 8.094,16.0421 6.255,16.0421 M17.746,16.0421 C15.907,16.0421 14.412,14.5461 14.412,12.7081 C14.412,10.8701 15.907,9.3741 17.746,9.3741 C19.585,9.3741 21.081,10.8701 21.081,12.7081 C21.081,14.5461 19.585,16.0421 17.746,16.0421 M19.426,1.7081 C18.873,0.6061 18.019,0.0001 17.022,0.0001 C15.841,0.0001 14.703,0.8781 14.399,2.2751 C14.264,2.8811 14.727,3.4621 15.353,3.4621 C15.812,3.4621 16.214,3.1381 16.311,2.6921 C16.397,2.2991 16.648,1.9791 17.056,1.9551 C17.272,1.9551 17.468,2.1371 17.636,2.4971 C17.81,2.8681 19.736,6.6601 20.413,8.1231 C19.719,7.7121 18.841,7.4181 17.745,7.4181 C15.498,7.4181 13.54,8.8171 12.787,10.8891 C12.522,10.7911 12.245,10.7391 11.97,10.7391 C11.711,10.7391 11.452,10.7851 11.203,10.8711 C10.443,8.8101 8.487,7.4181 6.254,7.4181 C5.158,7.4181 4.279,7.7121 3.586,8.1231 C4.27,6.6451 6.193,2.8591 6.362,2.4981 C6.531,2.1391 6.726,1.9561 6.942,1.9561 C7.343,1.9781 7.602,2.3011 7.689,2.6951 C7.785,3.1391 8.187,3.4631 8.645,3.4631 C9.273,3.4631 9.734,2.8811 9.6,2.2761 C9.302,0.9021 8.184,0.0001 6.979,0.0001 C5.982,0.0001 5.128,0.6061 4.575,1.7081 C4.529,1.7981 0,10.5761 0,11.7301 C0,12.3741 0.409,12.9231 0.979,13.1251 C1.192,15.8491 3.477,18.0001 6.255,18.0001 C8.52,18.0001 10.765,16.5781 11.436,13.6471 C11.634,12.7871 11.718,12.6931 11.971,12.6931 C12.271,12.6931 12.367,12.8561 12.577,13.7141 C13.274,16.5841 15.488,18.0001 17.746,18.0001 C20.524,18.0001 22.808,15.8491 23.021,13.1251 C23.591,12.9231 24,12.3741 24,11.7301 C24,10.5641 19.472,1.7981 19.426,1.7081"
    ></path>
</svg>
